<?xml version="1.0" standalone="no"?>
<!DOCTYPE svg PUBLIC "-//W3C//DTD SVG 20010904//EN"
 "http://www.w3.org/TR/2001/REC-SVG-20010904/DTD/svg10.dtd">
<svg version="1.0" xmlns="http://www.w3.org/2000/svg"
 width="668.000000pt" height="331.000000pt" viewBox="0 0 668.000000 331.000000"
 preserveAspectRatio="xMidYMid meet">
<metadata>
Created by potrace 1.16, written by Peter Selinger 2001-2019
</metadata>
<g transform="translate(0.000000,331.000000) scale(0.100000,-0.100000)"
fill="#1f7ae0" stroke="none">
<path d="M3489 2994 c-878 -320 -810 -294 -805 -303 3 -4 205 -126 450 -271
l446 -265 0 -362 0 -363 93 93 c75 76 109 102 184 140 51 26 128 57 170 68 99
25 249 27 353 4 158 -35 339 -149 431 -270 23 -30 45 -55 50 -55 5 0 9 167 9
379 l0 378 148 88 c81 48 150 90 155 92 4 2 7 -85 7 -194 l-1 -198 -32 -20
c-27 -17 -33 -27 -35 -63 -3 -37 1 -47 27 -71 l30 -28 -39 -124 c-22 -68 -40
-127 -40 -131 0 -5 50 -8 111 -8 85 0 110 3 106 13 -2 6 -21 67 -42 135 l-37
123 21 20 c11 11 24 31 27 44 8 31 -12 82 -37 96 -18 9 -19 25 -19 223 l0 214
260 153 c143 85 258 158 257 163 -2 5 -322 125 -712 267 -391 142 -733 267
-761 278 l-50 19 -725 -264z"/>
<path d="M4115 1640 c-93 -15 -213 -55 -285 -97 -87 -51 -226 -190 -278 -278
-84 -144 -123 -327 -103 -488 23 -187 94 -332 231 -468 71 -71 103 -94 181
-133 127 -63 225 -86 358 -86 259 1 476 109 632 315 47 63 103 180 126 265 24
89 24 300 0 390 -41 154 -148 321 -265 412 -168 132 -400 197 -597 168z m221
-429 c247 -87 328 -394 154 -584 -146 -159 -372 -166 -523 -15 -27 27 -60 74
-75 106 -23 49 -27 70 -27 147 0 76 4 99 26 146 82 174 273 260 445 200z"/>
<path d="M170 716 l0 -406 178 0 c97 0 196 5 220 10 116 27 222 111 274 218
31 63 33 73 33 177 0 99 -3 116 -27 168 -38 80 -117 160 -197 200 l-66 32
-207 3 -208 4 0 -406z m353 173 c47 -13 106 -63 123 -106 27 -63 13 -142 -35
-197 -32 -36 -87 -56 -156 -56 l-65 0 0 185 0 185 48 0 c26 0 64 -5 85 -11z"/>
<path d="M1020 715 l0 -405 110 0 110 0 0 105 0 106 62 -3 62 -3 60 -103 60
-102 128 0 c120 0 128 1 119 18 -5 9 -43 75 -85 147 -75 127 -75 129 -57 150
66 72 89 207 52 306 -28 73 -97 142 -168 169 -47 18 -78 20 -253 20 l-200 0 0
-405z m415 193 c33 -30 45 -74 31 -117 -18 -55 -53 -74 -146 -79 l-80 -5 0
112 0 111 84 0 c74 0 88 -3 111 -22z"/>
<path d="M2085 1107 c-153 -51 -249 -157 -281 -308 -44 -211 73 -408 279 -471
85 -25 182 -21 270 12 81 31 175 119 213 202 26 57 29 73 29 173 0 102 -2 115
-31 175 -38 81 -108 151 -193 192 -55 28 -76 33 -155 35 -56 2 -106 -2 -131
-10z m193 -226 c45 -23 77 -56 92 -96 56 -147 -89 -296 -235 -241 -67 26 -125
105 -125 171 0 59 59 147 115 171 44 19 110 17 153 -5z"/>
<path d="M2740 716 l0 -406 110 0 110 0 0 104 0 104 98 4 c72 3 110 10 147 27
65 29 128 92 155 153 24 56 28 153 10 216 -19 61 -78 131 -140 166 l-55 31
-217 3 -218 3 0 -405z m408 198 c34 -23 55 -71 48 -109 -12 -63 -72 -95 -178
-95 l-58 0 0 110 0 110 83 0 c59 0 89 -5 105 -16z"/>
<path d="M5090 845 c0 -251 2 -279 20 -329 27 -72 88 -139 158 -173 49 -24 69
-28 142 -28 73 0 93 4 142 28 62 30 115 83 150 149 22 42 23 53 26 336 l3 292
-110 0 -111 0 0 -250 c0 -204 -3 -256 -15 -280 -18 -35 -43 -50 -85 -50 -42 0
-67 15 -85 50 -12 24 -15 76 -15 280 l0 250 -110 0 -110 0 0 -275z"/>
<path d="M5870 1010 l0 -110 100 0 100 0 0 -295 0 -295 110 0 110 0 0 295 0
295 110 0 110 0 0 110 0 110 -320 0 -320 0 0 -110z"/>
</g>
</svg>
